<?xml version="1.0" encoding="utf-8"?>
<!-- Generator: Adobe Illustrator 15.1.0, SVG Export Plug-In . SVG Version: 6.00 Build 0)  -->
<!DOCTYPE svg PUBLIC "-//W3C//DTD SVG 1.1//EN" "http://www.w3.org/Graphics/SVG/1.1/DTD/svg11.dtd">
<svg version="1.1" id="Layer_1" xmlns="http://www.w3.org/2000/svg" xmlns:xlink="http://www.w3.org/1999/xlink" x="0px" y="0px"
	 width="158px" height="104px" viewBox="0 0 158 104" enable-background="new 0 0 158 104" xml:space="preserve">
<rect display="none" width="369" height="358"/>
<path fill="#9B5B1B" d="M126.032,23.743L140.25,2.265c-1.623-0.278-6.051,3.823-6.494,3.962c-0.441,0.139-4.083,3.475-4.378,3.962
	s-3.394,3.545-4.28,4.101c-0.886,0.556-7.035,5.63-7.035,5.63L126.032,23.743z"/>
<linearGradient id="SVGID_1_" gradientUnits="userSpaceOnUse" x1="295.0049" y1="-83.6567" x2="276.0054" y2="-63.3243" gradientTransform="matrix(-1 0 0 -1 428.0176 -51)">
	<stop  offset="0" style="stop-color:#FFCCCC"/>
	<stop  offset="1" style="stop-color:#F9E3DC"/>
</linearGradient>
<path fill="url(#SVGID_1_)" d="M121.375,22.576c12.895-15.59,15.145-21.381,21.25-20.25c3.255,0.602,3.75,10.125,4.125,11.25
	s0.416,18.624-0.875,20.145c-1.001,1.18-1.542,11.668-1.542,11.668L121.375,22.576z"/>
<path fill="#9B5B1B" d="M81.053,22.576L65.078,3.467c2.09-3.453,6.848,0.203,7.689,0.75c0.562,0.354,3.281,2.326,4.297,3.254
	c0.362,0.332,4.31,3.541,5.207,4.271c1.074,0.584,8.107,6.309,9.308,7.418C93.021,20.492,81.053,22.576,81.053,22.576z"/>
<linearGradient id="SVGID_2_" gradientUnits="userSpaceOnUse" x1="353.4912" y1="-85.002" x2="368.8242" y2="-61.0028" gradientTransform="matrix(-1 0 0 -1 428.0176 -51)">
	<stop  offset="0" style="stop-color:#FFCCCC"/>
	<stop  offset="1" style="stop-color:#F9E3DC"/>
</linearGradient>
<path fill="url(#SVGID_2_)" d="M86.666,22.576C73.771,6.986,71.521,1.195,65.416,2.326c-3.255,0.602-3.75,10.125-4.125,11.25
	s-0.667,19.25,0.791,20.959c0.792,1.707,1.917,13.416,1.917,13.416L86.666,22.576z"/>
<path fill="#9B5B1B" d="M104.938,87.075c-27.937-0.124-43.881-13.38-41.812-35.874C65,30.826,84.191,17.744,104.938,17.326
	c24.812-0.5,38.967,17.199,40.562,33.999C147.375,71.075,133.125,87.2,104.938,87.075z"/>
<ellipse fill="#FFFFFF" cx="84.293" cy="46.748" rx="15.587" ry="15.089"/>
<circle cx="84.853" cy="45.742" r="8.917"/>
<ellipse fill="#FFFFFF" cx="124.293" cy="46.748" rx="15.587" ry="15.089"/>
<circle cx="123.853" cy="45.742" r="8.917"/>
<path fill="none" stroke="#FFFFFF" stroke-miterlimit="10" d="M52.625,64.5C68.041,61.418,81,68.797,81,68.797"/>
<path fill="none" stroke="#FFFFFF" stroke-miterlimit="10" d="M53.375,69.5c12.5-3.875,26.859,2.219,26.859,2.219"/>
<path fill="none" stroke="#FFFFFF" stroke-miterlimit="10" d="M53.875,74.125c14-4.562,25.75,0.375,25.75,0.375"/>
<path fill="none" stroke="#FFFFFF" stroke-miterlimit="10" d="M154,64.5c-15.416-3.082-28.375,4.297-28.375,4.297"/>
<path fill="none" stroke="#FFFFFF" stroke-miterlimit="10" d="M153.25,69.5c-12.5-3.875-26.859,2.219-26.859,2.219"/>
<path fill="none" stroke="#FFFFFF" stroke-miterlimit="10" d="M152.75,74.125C138.75,69.562,127,74.5,127,74.5"/>
<path fill="#9B5B1B" d="M6.374,79.25C9.686,93.4,26.652,101,27.891,101h89.573h1.595h3.594c-0.799-5-1.069-12.549-1.133-14.876
	c-0.33,2.123-0.857,5.368-1.281,7.259c0.424-1.891,0.951-5.136,1.281-7.26c0.189-1.225,0.314-2.082,0.314-2.082L70.126,73.499
	c-4.625,9.875-15.655,14.821-18.125,15.875c-2.687,1.147-4.323,1.34-6.969,1.719c-1.75,0.25-15.47-0.709-20.615-7.677
	c-2-2.708-2.933-3.296-7.042-10.333C13.457,66.374,12.5,50.25,12.5,50.25C8.166,45.624,5.25,51,4.875,54S3.038,64.994,6.374,79.25z"
	/>
<path fill="none" stroke="#FFFFFF" stroke-miterlimit="10" d="M89.188,71.825c12.812,1.312,14.938-10.563,14.938-10.563
	c1.938,10.127,14.562,8.938,14.562,8.938"/>
</svg>
