<?xml version="1.0" encoding="utf-8"?>
<!-- Generator: Adobe Illustrator 15.1.0, SVG Export Plug-In  -->
<!DOCTYPE svg PUBLIC "-//W3C//DTD SVG 1.1//EN" "http://www.w3.org/Graphics/SVG/1.1/DTD/svg11.dtd" [
	<!ENTITY ns_flows "http://ns.adobe.com/Flows/1.0/">
]>
<svg version="1.1"
	 xmlns="http://www.w3.org/2000/svg" xmlns:xlink="http://www.w3.org/1999/xlink" xmlns:a="http://ns.adobe.com/AdobeSVGViewerExtensions/3.0/"
	 x="0px" y="0px" width="122px" height="80px" viewBox="0 0 122 80" overflow="visible" enable-background="new 0 0 122 80"
	 xml:space="preserve">
<defs>
</defs>
<path fill="#9B5B1B" d="M98.215,17.533l11.467-17.32c-1.311-0.224-4.881,3.083-5.238,3.195c-0.354,0.112-3.293,2.802-3.528,3.194
	c-0.238,0.393-2.738,2.859-3.453,3.307c-0.713,0.448-5.672,4.54-5.672,4.54L98.215,17.533z"/>
<linearGradient id="SVGID_1_" gradientUnits="userSpaceOnUse" x1="-15.4912" y1="-787.7217" x2="-30.8126" y2="-771.3254" gradientTransform="matrix(-1 0 0 -1 88.3545 -763)">
	<stop  offset="0" style="stop-color:#FFCCCC"/>
	<stop  offset="1" style="stop-color:#F9E3DC"/>
</linearGradient>
<path fill="url(#SVGID_1_)" d="M94.459,16.592C104.858,4.02,106.672-0.65,111.596,0.262c2.625,0.486,3.023,8.165,3.326,9.072
	s0.336,15.018-0.705,16.245c-0.809,0.951-1.244,9.409-1.244,9.409L94.459,16.592z"/>
<path fill="#9B5B1B" d="M61.946,16.592L49.064,1.182c1.686-2.784,5.522,0.164,6.201,0.604c0.453,0.286,2.646,1.876,3.464,2.625
	c0.292,0.268,3.476,2.855,4.199,3.444c0.867,0.471,6.537,5.087,7.506,5.982C71.598,14.911,61.946,16.592,61.946,16.592z"/>
<linearGradient id="SVGID_2_" gradientUnits="userSpaceOnUse" x1="31.6709" y1="-788.8052" x2="44.0342" y2="-769.454" gradientTransform="matrix(-1 0 0 -1 88.3545 -763)">
	<stop  offset="0" style="stop-color:#FFCCCC"/>
	<stop  offset="1" style="stop-color:#F9E3DC"/>
</linearGradient>
<path fill="url(#SVGID_2_)" d="M66.473,16.592C56.075,4.02,54.259-0.65,49.336,0.262c-2.625,0.486-3.023,8.165-3.326,9.072
	c-0.303,0.907-0.538,15.523,0.638,16.901c0.639,1.376,1.545,10.818,1.545,10.818L66.473,16.592z"/>
<path fill="#9B5B1B" d="M81.207,68.604c-22.528-0.101-35.384-10.791-33.716-28.929c1.511-16.43,16.986-26.979,33.716-27.316
	c20.007-0.403,31.421,13.869,32.708,27.417C115.426,55.7,103.936,68.703,81.207,68.604z"/>
<ellipse fill="#FFFFFF" cx="64.559" cy="36.083" rx="12.569" ry="12.167"/>
<circle cx="65.012" cy="35.272" r="7.19"/>
<ellipse fill="#FFFFFF" cx="96.813" cy="36.083" rx="12.569" ry="12.167"/>
<circle cx="96.459" cy="35.272" r="7.19"/>
<path fill="none" stroke="#FFFFFF" stroke-miterlimit="10" d="M39.022,50.398c12.431-2.485,22.88,3.465,22.88,3.465"/>
<path fill="none" stroke="#FFFFFF" stroke-miterlimit="10" d="M39.626,54.43c10.08-3.125,21.659,1.789,21.659,1.789"/>
<path fill="none" stroke="#FFFFFF" stroke-miterlimit="10" d="M40.03,58.16c11.29-3.68,20.765,0.302,20.765,0.302"/>
<path fill="none" stroke="#FFFFFF" stroke-miterlimit="10" d="M120.768,50.398c-12.432-2.485-22.881,3.465-22.881,3.465"/>
<path fill="none" stroke="#FFFFFF" stroke-miterlimit="10" d="M120.163,54.43c-10.078-3.125-21.658,1.789-21.658,1.789"/>
<path fill="none" stroke="#FFFFFF" stroke-miterlimit="10" d="M119.76,58.16c-11.289-3.68-20.764,0.302-20.764,0.302"/>
<path fill="#9B5B1B" d="M1.728,62.292c2.67,11.411,16.352,17.539,17.351,17.539h72.229h1.285h2.898
	c-0.645-4.032-0.861-10.119-0.914-11.996c-0.266,1.712-0.691,4.329-1.033,5.853c0.342-1.523,0.768-4.141,1.033-5.854
	c0.152-0.986,0.254-1.68,0.254-1.68l-41.695-8.5c-3.729,7.963-12.624,11.951-14.616,12.802c-2.167,0.925-3.485,1.081-5.619,1.386
	c-1.411,0.201-12.475-0.572-16.624-6.191c-1.613-2.183-2.366-2.657-5.679-8.332c-3.159-5.409-3.931-18.411-3.931-18.411
	c-3.495-3.73-5.846,0.605-6.149,3.024C0.215,44.352-0.963,50.796,1.728,62.292z"/>
<path fill="none" stroke="#FFFFFF" stroke-miterlimit="10" d="M68.505,56.305c10.332,1.059,12.046-8.518,12.046-8.518
	c1.562,8.166,11.741,7.208,11.741,7.208"/>
</svg>
