<?xml version="1.0" encoding="utf-8"?>
<!-- Generator: Adobe Illustrator 17.1.0, SVG Export Plug-In . SVG Version: 6.00 Build 0)  -->
<!DOCTYPE svg PUBLIC "-//W3C//DTD SVG 1.1//EN" "http://www.w3.org/Graphics/SVG/1.1/DTD/svg11.dtd">
<svg version="1.1" id="Layer_1" xmlns="http://www.w3.org/2000/svg" xmlns:xlink="http://www.w3.org/1999/xlink" x="0px" y="0px"
	 viewBox="0 0 79 26" enable-background="new 0 0 79 26" xml:space="preserve">
<g>
	<path fill="#FFFFFF" d="M15.7,3c6,0.3,8.1,2.6,8.1,5.3c0,4.7-6.4,8.4-11.8,8.6c-1.6,3.2-4.4,5-8.1,5c-2.3,0-3.7-0.9-3.7-2.3
		c0-0.9,1.1-1.8,2.3-1.8c0.7,0.5,1.4,0.9,2,0.9c1.1,0,1.9-1.1,2.8-3.3c1.1-2.7,2.3-6.5,3.1-8.9C8.6,6.7,6.7,7.3,5.8,7.9
		C5,7.9,4.2,7.5,4.2,6.7c0-1.5,3.1-3.1,7.6-3.6c0.3-0.8,1.8-1.3,2.9-1.3C15.6,1.8,15.7,2,15.7,3z M14.8,6.5
		c-0.3,1.9-0.9,4.9-1.7,7.5c0.2,0,0.4,0,0.5,0c2.9,0,5-2.2,5-4.7C18.6,8.1,17.8,6.9,14.8,6.5z"/>
	<path fill="#FFFFFF" d="M31.1,2.9c1.4,0,2.3,0.5,2.3,1.6c0,1-0.7,2.3-3.2,5.6c-0.7,1-1.5,2.5-1.7,3.5l2.2-0.6
		c0.3-0.5,0.7-1,1.2-1.4c1.5-1.4,2.5-1.9,3.4-1.9c1.6,0,2.4,0.9,2.4,1.8c0,1.1-0.4,1.3-3.8,2.5c0,2.5,0.3,3.3,1.1,3.3
		c0.9,0,2.2-1,4.5-3.3c0.6,0,1.3,0.3,1.3,0.7c0,1.3-5.1,5.6-8.2,5.6c-2.1,0-3-1-3-3.6c0-0.6,0.1-1.2,0.2-1.7l-1.5,0.4
		c-0.1,1-0.2,2-0.2,4c-0.4,0.3-1,0.4-1.8,0.4c-1.9,0-3.4-1.2-3.4-2.4c0-0.7,0.3-1.5,1.1-2.5C25.4,6.3,26.9,2.9,31.1,2.9z"/>
	<path fill="#FFFFFF" d="M38.3,16c0-3.5,4.1-7,7.4-7c2.3,0,3.6,0.8,3.6,2.4c0,1.9-1.6,3.4-6.2,4.1c0,1,0.3,1.6,1.6,1.6
		c2.3,0,5.2-1.3,7.1-3.3c0.8,0,1.3,0.4,1.3,0.8c0,1.7-5.6,5.4-9.9,5.4C39.8,19.9,38.3,18.5,38.3,16z M44.9,11.4
		c-0.5,0-1.4,0.8-1.6,2.4c1.9-0.2,2.3-0.9,2.3-1.6C45.5,11.7,45.3,11.4,44.9,11.4z"/>
	<path fill="#FFFFFF" d="M52.4,12.1c-0.7,0-1.2-0.1-1.2-0.6c0-0.7,0.7-1.4,2.1-1.4c0-0.5,0.1-0.9,0.2-1.7c0.3-2,2.1-3.5,4.4-3.5
		c1.5,0,2.2,0.4,2.2,1.4c0,0.7-0.4,1.3-2.2,3.7c1,0,2.4-0.1,2.9-0.2c0.4,0.2,0.6,0.6,0.6,1c0,0.9-0.8,1.5-1.9,1.5
		c-0.8,0-1.5,0-2.4-0.1c-0.9,2.5-1.2,3.8-1.2,4.2c0,0.6,0.2,0.8,0.9,0.8c1.4,0,3.7-1.1,6-3.3c0.6,0,1.3,0.3,1.3,0.8
		c0,1.4-5.1,5.5-9,5.5c-2.6,0-4.3-0.9-4.3-3C50.8,16.4,51.1,15,52.4,12.1z"/>
	<path fill="#FFFFFF" d="M69.5,2.9c1.4,0,2.2,0.5,2.2,1.6c0,1-0.7,2.3-3.3,5.3L67.5,12c2.4-1.5,4.5-2.3,5.8-2.3
		c1.3,0,1.9,0.6,1.9,1.4c0,0.7-0.3,1.4-0.8,2.3c-0.6,1-1.7,2.9-1.7,3.4c0,0.3,0.2,0.3,0.5,0.3c0.6,0,2.7-1.1,4.8-3.3
		c0.6,0,1.3,0.3,1.3,0.8c0,1.4-5.7,5.5-8.8,5.5c-2,0-2.6-0.6-2.6-1.9c0-1.5,1.7-4.2,1.7-4.7c0-0.2-0.1-0.4-0.5-0.4
		c-0.6,0-1.4,0.3-2.3,0.8c-0.3,1.6-0.6,3.4-0.6,5.5c-0.3,0.2-0.9,0.3-1.5,0.3c-1.9,0-3.4-1.2-3.4-2.4c0-0.7,0.3-1.5,1.1-2.5
		C63.8,6.5,65.2,2.9,69.5,2.9z"/>
</g>
</svg>
