<?xml version="1.0" encoding="utf-8"?>
<!-- Generator: Adobe Illustrator 15.1.0, SVG Export Plug-In  -->
<!DOCTYPE svg PUBLIC "-//W3C//DTD SVG 1.1//EN" "http://www.w3.org/Graphics/SVG/1.1/DTD/svg11.dtd" [
	<!ENTITY ns_flows "http://ns.adobe.com/Flows/1.0/">
]>
<svg version="1.1"
	 xmlns="http://www.w3.org/2000/svg" xmlns:xlink="http://www.w3.org/1999/xlink" xmlns:a="http://ns.adobe.com/AdobeSVGViewerExtensions/3.0/"
	 x="0px" y="0px" width="79px" height="26px" viewBox="-0.268 -1.789 79 26"
	 overflow="visible" enable-background="new -0.268 -1.789 79 26" xml:space="preserve">
<defs>
</defs>
<path fill="#B7B7B7" d="M15.445,1.241c5.984,0.299,8.124,2.552,8.124,5.312c0,4.668-6.385,8.393-11.768,8.555
	c-1.638,3.195-4.379,4.989-8.057,4.989C1.437,20.097,0,19.177,0,17.796c0-0.919,1.137-1.771,2.34-1.815
	c0.702,0.528,1.404,0.852,2.039,0.852c1.07,0,1.906-1.104,2.775-3.266c1.07-2.69,2.273-6.461,3.109-8.854
	c-1.906,0.23-3.811,0.828-4.747,1.426c-0.735,0-1.538-0.414-1.538-1.219c0-1.495,3.109-3.127,7.589-3.587
	C11.835,0.574,13.372,0,14.442,0C15.378,0,15.445,0.184,15.445,1.241z M14.509,4.736c-0.334,1.932-0.936,4.921-1.671,7.52
	c0.167,0.023,0.368,0.023,0.468,0.023c2.909,0,5.015-2.231,5.015-4.714C18.32,6.277,17.551,5.128,14.509,4.736z"/>
<path fill="#B7B7B7" d="M30.789,1.103c1.438,0,2.34,0.46,2.34,1.633c0,1.012-0.735,2.299-3.176,5.565
	c-0.735,1.012-1.471,2.506-1.672,3.495l2.24-0.644c0.334-0.483,0.735-0.989,1.17-1.402c1.504-1.426,2.474-1.886,3.377-1.886
	c1.638,0,2.407,0.92,2.407,1.793c0,1.058-0.401,1.288-3.845,2.46c0,2.484,0.334,3.335,1.137,3.335c0.87,0,2.207-0.989,4.547-3.312
	c0.635,0,1.303,0.252,1.303,0.713c0,1.334-5.148,5.633-8.224,5.633c-2.14,0-2.976-0.988-2.976-3.562c0-0.576,0.067-1.174,0.167-1.68
	l-1.504,0.414c-0.134,1.035-0.201,2.023-0.234,3.979c-0.368,0.275-1.003,0.438-1.772,0.438c-1.939,0-3.376-1.22-3.41-2.415
	c0-0.713,0.267-1.541,1.103-2.53C25.172,4.529,26.609,1.103,30.789,1.103z"/>
<path fill="#B7B7B7" d="M38.076,14.256c0-3.472,4.111-7.013,7.355-7.013c2.307,0,3.576,0.759,3.576,2.369
	c0,1.932-1.639,3.426-6.219,4.139c0,1.035,0.301,1.61,1.604,1.61c2.272,0,5.215-1.334,7.121-3.336
	c0.803,0.023,1.271,0.393,1.271,0.761c0,1.7-5.582,5.356-9.929,5.356C39.58,18.143,38.076,16.74,38.076,14.256z M44.595,9.657
	c-0.469,0-1.371,0.782-1.605,2.392c1.873-0.23,2.273-0.943,2.273-1.633C45.263,9.933,44.996,9.657,44.595,9.657z"/>
<path fill="#B7B7B7" d="M52.15,10.301c-0.67-0.046-1.238-0.092-1.238-0.598c0-0.712,0.736-1.356,2.107-1.379
	c0.033-0.483,0.066-0.851,0.199-1.702c0.302-2.023,2.106-3.472,4.381-3.472c1.537,0,2.24,0.368,2.24,1.356
	c0,0.713-0.402,1.265-2.174,3.702c1.037-0.023,2.439-0.092,2.875-0.161c0.4,0.207,0.635,0.621,0.635,0.966
	c0,0.874-0.836,1.541-1.938,1.541c-0.769,0-1.471-0.023-2.44-0.138c-0.901,2.529-1.17,3.816-1.17,4.162
	c0,0.553,0.201,0.805,0.902,0.805c1.371,0,3.678-1.104,5.951-3.311c0.635,0,1.337,0.32,1.337,0.781c0,1.356-5.114,5.473-8.96,5.473
	c-2.574,0-4.312-0.92-4.312-3.035C50.544,14.624,50.878,13.222,52.15,10.301z"/>
<path fill="#B7B7B7" d="M69.199,1.103c1.438,0,2.174,0.46,2.174,1.633c0,1.012-0.736,2.346-3.344,5.312l-0.803,2.161
	c2.406-1.518,4.48-2.253,5.783-2.253c1.271,0,1.938,0.552,1.938,1.357c0,0.713-0.301,1.426-0.803,2.299
	c-0.567,1.011-1.671,2.875-1.671,3.449c0,0.254,0.167,0.346,0.468,0.346c0.603,0,2.675-1.127,4.849-3.266
	c0.635,0,1.303,0.299,1.303,0.76c0,1.447-5.682,5.474-8.758,5.474c-1.974,0-2.642-0.599-2.642-1.863
	c0-1.518,1.738-4.161,1.738-4.668c0-0.184-0.101-0.368-0.47-0.368c-0.567,0-1.371,0.251-2.272,0.782
	c-0.334,1.634-0.567,3.356-0.603,5.496c-0.301,0.229-0.869,0.322-1.537,0.322c-1.938,0-3.377-1.22-3.409-2.415
	c0-0.713,0.267-1.541,1.103-2.53C63.548,4.736,64.919,1.103,69.199,1.103z"/>
</svg>
