<?xml version="1.0" encoding="utf-8"?>
<!-- Generator: Adobe Illustrator 15.1.0, SVG Export Plug-In  -->
<!DOCTYPE svg PUBLIC "-//W3C//DTD SVG 1.1//EN" "http://www.w3.org/Graphics/SVG/1.1/DTD/svg11.dtd" [
	<!ENTITY ns_flows "http://ns.adobe.com/Flows/1.0/">
]>
<svg version="1.1"
	 xmlns="http://www.w3.org/2000/svg" xmlns:xlink="http://www.w3.org/1999/xlink" xmlns:a="http://ns.adobe.com/AdobeSVGViewerExtensions/3.0/"
	 x="0px" y="0px" width="14px" height="1841px" viewBox="0 0 14 1841" overflow="visible" enable-background="new 0 0 14 1841"
	 xml:space="preserve">
<defs>
</defs>
<polygon fill="#FF2D1E" points="14,0.63 12.043,2.521 9.487,0 6.949,2.521 4.42,0 1.896,2.521 0,0.63 0,15.435 14,23.749 "/>
<polygon fill="#FF2D1E" points="0,488.99 14,486.966 14,29.734 0,21.419 "/>
<polygon fill="#FFD2D2" points="0,15.435 0,21.419 14,29.734 14,23.749 "/>
<polygon fill="#FFD2D2" points="0,39.385 0,45.368 14,53.684 14,47.699 "/>
<polygon fill="#FFD2D2" points="0,63.336 0,69.318 14,77.635 14,71.648 "/>
<polygon fill="#FFD2D2" points="0,87.286 0,93.27 14,101.585 14,95.6 "/>
<polygon fill="#FFD2D2" points="0,111.235 0,117.22 14,125.535 14,119.55 "/>
<polygon fill="#FFD2D2" points="0,135.187 0,141.171 14,149.486 14,143.501 "/>
<polygon fill="#FFD2D2" points="0,159.137 0,165.121 14,173.437 14,167.451 "/>
<polygon fill="#FFD2D2" points="0,183.087 0,189.07 14,197.386 14,191.401 "/>
<polygon fill="#FFD2D2" points="0,207.038 0,213.021 14,221.337 14,215.353 "/>
<polygon fill="#FFD2D2" points="0,230.988 0,236.972 14,245.287 14,239.302 "/>
<polygon fill="#FFD2D2" points="0,254.938 0,260.923 14,269.238 14,263.253 "/>
<polygon fill="#FFD2D2" points="0,278.889 0,284.873 14,293.188 14,287.203 "/>
<polygon fill="#FFD2D2" points="0,302.839 0,308.823 14,317.139 14,311.153 "/>
<polygon fill="#FFD2D2" points="0,326.79 0,332.774 14,341.09 14,335.104 "/>
<polygon fill="#FFD2D2" points="0,350.74 0,356.724 14,365.039 14,359.055 "/>
<polygon fill="#FFD2D2" points="0,374.691 0,380.674 14,388.99 14,383.005 "/>
<polygon fill="#FFD2D2" points="0,398.642 0,404.625 14,412.94 14,406.955 "/>
<polygon fill="#FFD2D2" points="0,422.591 0,428.575 14,436.891 14,430.905 "/>
<polygon fill="#FFD2D2" points="0,446.542 0,452.526 14,460.842 14,454.856 "/>
<polygon fill="#FF2D1E" points="0,930.965 14,930.965 14,483.734 0,475.419 "/>
<polygon fill="#FFD2D2" points="0,470.435 0,476.419 14,484.734 14,478.749 "/>
<polygon fill="#FFD2D2" points="0,494.385 0,500.368 14,508.684 14,502.699 "/>
<polygon fill="#FFD2D2" points="0,518.336 0,524.318 14,532.635 14,526.648 "/>
<polygon fill="#FFD2D2" points="0,542.286 0,548.27 14,556.585 14,550.6 "/>
<polygon fill="#FFD2D2" points="0,566.235 0,572.22 14,580.535 14,574.55 "/>
<polygon fill="#FFD2D2" points="0,590.187 0,596.171 14,604.486 14,598.501 "/>
<polygon fill="#FFD2D2" points="0,614.137 0,620.121 14,628.437 14,622.451 "/>
<polygon fill="#FFD2D2" points="0,638.087 0,644.07 14,652.386 14,646.401 "/>
<polygon fill="#FFD2D2" points="0,662.038 0,668.021 14,676.337 14,670.353 "/>
<polygon fill="#FFD2D2" points="0,685.988 0,691.972 14,700.287 14,694.302 "/>
<polygon fill="#FFD2D2" points="0,709.938 0,715.923 14,724.238 14,718.253 "/>
<polygon fill="#FFD2D2" points="0,733.889 0,739.873 14,748.188 14,742.203 "/>
<polygon fill="#FFD2D2" points="0,757.839 0,763.823 14,772.139 14,766.153 "/>
<polygon fill="#FFD2D2" points="0,781.79 0,787.774 14,796.09 14,790.104 "/>
<polygon fill="#FFD2D2" points="0,805.74 0,811.724 14,820.039 14,814.055 "/>
<polygon fill="#FFD2D2" points="0,829.691 0,835.674 14,843.99 14,838.005 "/>
<polygon fill="#FFD2D2" points="0,853.642 0,859.625 14,867.94 14,861.955 "/>
<polygon fill="#FFD2D2" points="0,877.591 0,883.575 14,891.891 14,885.905 "/>
<polygon fill="#FFD2D2" points="0,901.542 0,907.526 14,915.842 14,909.856 "/>
<polygon fill="#FF2D1E" points="0,1340.965 14,1340.965 14,893.734 0,885.419 "/>
<polygon fill="#FFD2D2" points="0,880.435 0,886.419 14,894.734 14,888.749 "/>
<polygon fill="#FFD2D2" points="0,904.385 0,910.368 14,918.684 14,912.699 "/>
<polygon fill="#FFD2D2" points="0,928.336 0,934.318 14,942.635 14,936.648 "/>
<polygon fill="#FFD2D2" points="0,952.286 0,958.27 14,966.585 14,960.6 "/>
<polygon fill="#FFD2D2" points="0,976.235 0,982.22 14,990.535 14,984.55 "/>
<polygon fill="#FFD2D2" points="0,1000.187 0,1006.171 14,1014.486 14,1008.501 "/>
<polygon fill="#FFD2D2" points="0,1024.137 0,1030.121 14,1038.437 14,1032.451 "/>
<polygon fill="#FFD2D2" points="0,1048.087 0,1054.07 14,1062.386 14,1056.401 "/>
<polygon fill="#FFD2D2" points="0,1072.038 0,1078.021 14,1086.337 14,1080.353 "/>
<polygon fill="#FFD2D2" points="0,1095.988 0,1101.972 14,1110.287 14,1104.302 "/>
<polygon fill="#FFD2D2" points="0,1119.938 0,1125.923 14,1134.238 14,1128.253 "/>
<polygon fill="#FFD2D2" points="0,1143.889 0,1149.873 14,1158.188 14,1152.203 "/>
<polygon fill="#FFD2D2" points="0,1167.839 0,1173.823 14,1182.139 14,1176.153 "/>
<polygon fill="#FFD2D2" points="0,1191.79 0,1197.774 14,1206.09 14,1200.104 "/>
<polygon fill="#FFD2D2" points="0,1215.74 0,1221.724 14,1230.039 14,1224.055 "/>
<polygon fill="#FFD2D2" points="0,1239.691 0,1245.674 14,1253.99 14,1248.005 "/>
<polygon fill="#FFD2D2" points="0,1263.642 0,1269.625 14,1277.94 14,1271.955 "/>
<polygon fill="#FFD2D2" points="0,1287.591 0,1293.575 14,1301.891 14,1295.905 "/>
<polygon fill="#FFD2D2" points="0,1311.542 0,1317.526 14,1325.842 14,1319.856 "/>
<polygon fill="#FF2D1E" points="0,1388.965 14,1399.965 14,941.734 0,933.419 "/>
<polygon fill="#FFD2D2" points="0,928.435 0,934.419 14,942.734 14,936.749 "/>
<polygon fill="#FFD2D2" points="0,952.385 0,958.368 14,966.684 14,960.699 "/>
<polygon fill="#FFD2D2" points="0,976.336 0,982.318 14,990.635 14,984.648 "/>
<polygon fill="#FFD2D2" points="0,1000.286 0,1006.27 14,1014.585 14,1008.6 "/>
<polygon fill="#FFD2D2" points="0,1024.235 0,1030.22 14,1038.535 14,1032.55 "/>
<polygon fill="#FFD2D2" points="0,1048.187 0,1054.171 14,1062.486 14,1056.501 "/>
<polygon fill="#FFD2D2" points="0,1072.137 0,1078.121 14,1086.437 14,1080.451 "/>
<polygon fill="#FFD2D2" points="0,1096.087 0,1102.07 14,1110.386 14,1104.401 "/>
<polygon fill="#FFD2D2" points="0,1120.038 0,1126.021 14,1134.337 14,1128.353 "/>
<polygon fill="#FFD2D2" points="0,1143.988 0,1149.972 14,1158.287 14,1152.302 "/>
<polygon fill="#FFD2D2" points="0,1167.938 0,1173.923 14,1182.238 14,1176.253 "/>
<polygon fill="#FFD2D2" points="0,1191.889 0,1197.873 14,1206.188 14,1200.203 "/>
<polygon fill="#FFD2D2" points="0,1215.839 0,1221.823 14,1230.139 14,1224.153 "/>
<polygon fill="#FFD2D2" points="0,1239.79 0,1245.774 14,1254.09 14,1248.104 "/>
<polygon fill="#FFD2D2" points="0,1263.74 0,1269.724 14,1278.039 14,1272.055 "/>
<polygon fill="#FFD2D2" points="0,1287.691 0,1293.674 14,1301.99 14,1296.005 "/>
<polygon fill="#FFD2D2" points="0,1311.642 0,1317.625 14,1325.94 14,1319.955 "/>
<polygon fill="#FFD2D2" points="0,1335.591 0,1341.575 14,1349.891 14,1343.905 "/>
<polygon fill="#FFD2D2" points="0,1359.542 0,1365.526 14,1373.842 14,1367.856 "/>
<polygon fill="#FF2D1E" points="0,1840.965 14,1840.965 14,1393.734 0,1385.419 "/>
<polygon fill="#FFD2D2" points="0,1382.435 0,1388.419 14,1396.734 14,1390.749 "/>
<polygon fill="#FFD2D2" points="0,1406.385 0,1412.368 14,1420.684 14,1414.699 "/>
<polygon fill="#FFD2D2" points="0,1430.336 0,1436.318 14,1444.635 14,1438.648 "/>
<polygon fill="#FFD2D2" points="0,1454.286 0,1460.27 14,1468.585 14,1462.6 "/>
<polygon fill="#FFD2D2" points="0,1478.235 0,1484.22 14,1492.535 14,1486.55 "/>
<polygon fill="#FFD2D2" points="0,1502.187 0,1508.171 14,1516.486 14,1510.501 "/>
<polygon fill="#FFD2D2" points="0,1526.137 0,1532.121 14,1540.437 14,1534.451 "/>
<polygon fill="#FFD2D2" points="0,1550.087 0,1556.07 14,1564.386 14,1558.401 "/>
<polygon fill="#FFD2D2" points="0,1574.038 0,1580.021 14,1588.337 14,1582.353 "/>
<polygon fill="#FFD2D2" points="0,1597.988 0,1603.972 14,1612.287 14,1606.302 "/>
<polygon fill="#FFD2D2" points="0,1621.938 0,1627.923 14,1636.238 14,1630.253 "/>
<polygon fill="#FFD2D2" points="0,1645.889 0,1651.873 14,1660.188 14,1654.203 "/>
<polygon fill="#FFD2D2" points="0,1669.839 0,1675.823 14,1684.139 14,1678.153 "/>
<polygon fill="#FFD2D2" points="0,1693.79 0,1699.774 14,1708.09 14,1702.104 "/>
<polygon fill="#FFD2D2" points="0,1717.74 0,1723.724 14,1732.039 14,1726.055 "/>
<polygon fill="#FFD2D2" points="0,1741.691 0,1747.674 14,1755.99 14,1750.005 "/>
<polygon fill="#FFD2D2" points="0,1765.642 0,1771.625 14,1779.94 14,1773.955 "/>
<polygon fill="#FFD2D2" points="0,1789.591 0,1795.575 14,1803.891 14,1797.905 "/>
<polygon fill="#FFD2D2" points="0,1813.542 0,1819.526 14,1827.842 14,1821.856 "/>
</svg>
